# xmcd
#
# Track frame offsets:
#	150
#	18189
#	33591
#	51889
#	65992
#	83915
#	100014
#	119573
#	138602
#	156519
#	173800
#	189754
#
# Disc length: 2771 seconds
#
# Revision: 0
# Processed by: cddbd v1.5.1PL2 Copyright (c) Steve Scherf et al.
# Submitted via: audiograbber 1.83.01
#
DISCID=a50ad10c
DTITLE=Rachael Warwick - Anglo Americana
DYEAR=2005
DGENRE=Country
TTITLE0=SUNSHINE
TTITLE1=COWBOY
TTITLE2=ONE LAST LOOK AT LOVE
TTITLE3=ASK ME NO QUESTIONS
TTITLE4=ANGEL
TTITLE5=HIGHWAY 109
TTITLE6=LOVIN'
TTITLE7=THANK YOU
TTITLE8=EXCUSE ME
TTITLE9=MISTAKE
TTITLE10=RODEO MAN
TTITLE11=GOODBYE
EXTD=
EXTT0=
EXTT1=
EXTT2=
EXTT3=
EXTT4=
EXTT5=
EXTT6=
EXTT7=
EXTT8=
EXTT9=
EXTT10=
EXTT11=
PLAYORDER=
